# xmcd CD database file
#
# Track frame offsets:
#	150
#	16686
#	36378
#	54515
#	69428
#	91070
#	105633
#	123342
#	136599
#	156212
#	171200
#	187929
#	208387
#	219829
#
# Disc length: 3168 seconds
#
# Revision: 0
# Processed by: cddbd v1.5.2PL0 Copyright (c) Steve Scherf et al.
# Submitted via: CDex 1.77
#
DISCID=b50c5e0e
DTITLE=Stefanie Boltz - Love, Lakes and Snakes
DYEAR=2014
DGENRE=Jazz
TTITLE0=Sunrise
TTITLE1=Don't leave your coffee by the bed
TTITLE2=Bright Life
TTITLE3=Honeybunny
TTITLE4=Follow me home
TTITLE5=Up and down
TTITLE6=Our Place
TTITLE7=Take it all the way
TTITLE8=Queen of my heart
TTITLE9=They can't take that away from me
TTITLE10=I can hear it
TTITLE11=Mondays I should stay in bed
TTITLE12=Molignon
TTITLE13=The Day
EXTD=YEAR: 2014
EXTT0=
EXTT1=
EXTT2=
EXTT3=
EXTT4=
EXTT5=
EXTT6=
EXTT7=
EXTT8=
EXTT9=
EXTT10=
EXTT11=
EXTT12=
EXTT13=
PLAYORDER=
